<?xml version="1.0" encoding="utf-8"?>
<svg version="1.1" xmlns:xlink="http://www.w3.org/1999/xlink" width="16px" height="18px" xmlns="http://www.w3.org/2000/svg">
  <g transform="matrix(1 0 0 1 -259 -222 )">
    <path d="M 13.2602174023438 4.8586314453125  L 13 4.8586314453125  L 13 15.7220408203125  C 13.2837643554687 16.2917166992188  13.0364336523437 16.5966145898438  12.4352436523438 16.5966145898438  L 3.7137099609375 16.5742857617188  C 3.1129237109375 16.5742857617188  2.84863326171875 16.31411765625  3 15.7445377734375  L 3 4.8586314453125  L 1.497223828125 4.8586314453125  L 1.497223828125 15.7486674023438  C 1.497223828125 16.8909963476562  2.47430595703125 17.81988  3.6752727734375 17.81988  L 12.3836828320313 17.81988  C 13.58454859375 17.81988  14.5621355273438 16.8909963476562  14.5621355273438 15.7486674023438  L 14.5621355273438 4.8586314453125  L 13.2602174023438 4.8586314453125  Z M 4.6706775390625 7.18943578125  L 4.6706775390625 14.9010324609375  C 4.6706775390625 14.9512124609375  4.6781731640625 14.999687890625  4.69177634765625 15.0460263476563  C 5.090660078125 15.0456422265625  5.48951853515625 15.044801875  5.88840224609375 15.04348140625  C 5.90152591796875 14.9980071679688  5.9088196484375 14.950252109375  5.9088196484375 14.9009363476562  L 5.9088196484375 7.19272509765625  C 5.49613083984375 7.1911164453125  5.08336634765625 7.190108046875  4.6706775390625 7.18943578125  Z M 10.1370374609375 7.2172869140625  L 10.1370374609375 14.9010324609375  C 10.1370374609375 14.9411764648437  10.141857890625 14.980192109375  10.1507416015625 15.0179831835937  C 10.5540419335937 15.0162784765625  10.9574684765625 15.0150780078125  11.360970703125 15.014309765625  C 11.3692487109375 14.9776470507813  11.3737915234375 14.9397598828125  11.3737915234375 14.9009363476562  L 11.3737915234375 7.2204801953125  C 10.9615064648438 7.21992796875  10.5492215039062 7.218895546875  10.1370374609375 7.2172869140625  Z M 15.650011640625 2.77121248046875  L 11.98876140625 2.77121248046875  L 11.98876140625 1.47346939453125  C 12.0109454101562 0.428475390625  11.1061191796875 0.1764705859375  10.2028829492188 0.1764705859375  L 5.8569559375 0.1764705859375  C 4.73526111328125 0.1764705859375  4.09553291015625 0.5778871484375  4.09553291015625 1.437551015625  L 4.090788203125 2.7711164453125  L 0.352941171875 2.7711164453125  L 0.352941171875 4  L 15.650011640625 4  L 15.650011640625 2.77121248046875  Z M 10.7515026171875 2.77121248046875  L 5.307831484375 2.77121248046875  L 5.307831484375 1.863721484375  C 5.307831484375 1.57615845703125  5.52096486328125 1.3254741796875  5.82391962890625 1.3254741796875  L 10.1789322460937 1.34787515625  C 10.481382265625 1.34787515625  10.7476664648437 1.554501796875  10.7476664648437 1.84213685546875  L 10.7515026171875 2.77121248046875  Z M 7.44741796875 7.21815125  L 7.44741796875 14.9017766992188  C 7.44741796875 14.9419208203125  7.4522636328125 14.9810324609375  7.46104640625 15.0187275390625  C 7.860788203125 15.0170468164062  8.260555234375 15.015918359375  8.66042322265625 15.0151741210938  C 8.6686002734375 14.9784874023438  8.6731430859375 14.940600234375  8.6731430859375 14.901680703125  L 8.6731430859375 7.22132052734375  C 8.26459328125 7.220672265625  7.8559677734375 7.2197358984375  7.44741796875 7.21815125  Z " fill-rule="nonzero" fill="#ffffff" stroke="none" fill-opacity="0.980392156862745" transform="matrix(1 0 0 1 259 222 )" />
  </g>
</svg>