<?xml version="1.0" encoding="utf-8"?>
<svg version="1.1" xmlns:xlink="http://www.w3.org/1999/xlink" width="22px" height="17px" xmlns="http://www.w3.org/2000/svg">
  <g transform="matrix(1 0 0 1 -84 -16 )">
    <path d="M 5.94196428571429 12.7017045454546  C 6.17113095238097 12.9270833333334  6.28571428571429 13.2007575757575  6.28571428571429 13.5227272727273  L 6.28571428571429 15.8409090909091  C 6.28571428571429 16.1628787878788  6.17113095238097 16.4365530303031  5.94196428571429 16.6619318181819  C 5.71279761904761 16.8873106060606  5.43452380952381 17  5.10714285714288 17  L 1.17857142857142 17  C 0.851190476190485 17  0.572916666666679 16.8873106060606  0.34375 16.6619318181819  C 0.114583333333321 16.4365530303031  0 16.1628787878788  0 15.8409090909091  L 0 13.5227272727273  C 0 13.2007575757575  0.114583333333321 12.9270833333334  0.34375 12.7017045454546  C 0.572916666666679 12.4763257575759  0.851190476190485 12.3636363636364  1.17857142857142 12.3636363636364  L 5.10714285714288 12.3636363636364  C 5.43452380952381 12.3636363636364  5.71279761904761 12.4763257575759  5.94196428571429 12.7017045454546  Z M 5.94196428571429 6.51988636363637  C 6.17113095238097 6.74526515151524  6.28571428571429 7.01893939393938  6.28571428571429 7.34090909090912  L 6.28571428571429 9.65909090909088  C 6.28571428571429 9.98106060606062  6.17113095238097 10.2547348484848  5.94196428571429 10.4801136363636  C 5.71279761904761 10.7054924242425  5.43452380952381 10.8181818181819  5.10714285714288 10.8181818181819  L 1.17857142857142 10.8181818181819  C 0.851190476190485 10.8181818181819  0.572916666666679 10.7054924242425  0.34375 10.4801136363636  C 0.114583333333321 10.2547348484848  0 9.98106060606062  0 9.65909090909088  L 0 7.34090909090912  C 0 7.01893939393938  0.114583333333321 6.74526515151524  0.34375 6.51988636363637  C 0.572916666666679 6.29450757575751  0.851190476190485 6.18181818181813  1.17857142857142 6.18181818181813  L 5.10714285714288 6.18181818181813  C 5.43452380952381 6.18181818181813  5.71279761904761 6.29450757575751  5.94196428571429 6.51988636363637  Z M 21.65625 12.7017045454546  C 21.8854166666666 12.9270833333334  22 13.2007575757575  22 13.5227272727273  L 22 15.8409090909091  C 22 16.1628787878788  21.8854166666666 16.4365530303031  21.65625 16.6619318181819  C 21.4270833333334 16.8873106060606  21.1488095238095 17  20.8214285714286 17  L 9.03571428571429 17  C 8.70833333333332 17  8.43005952380951 16.8873106060606  8.20089285714288 16.6619318181819  C 7.97172619047619 16.4365530303031  7.85714285714288 16.1628787878788  7.85714285714288 15.8409090909091  L 7.85714285714288 13.5227272727273  C 7.85714285714288 13.2007575757575  7.97172619047619 12.9270833333334  8.20089285714288 12.7017045454546  C 8.43005952380951 12.4763257575759  8.70833333333332 12.3636363636364  9.03571428571429 12.3636363636364  L 20.8214285714286 12.3636363636364  C 21.1488095238095 12.3636363636364  21.4270833333334 12.4763257575759  21.65625 12.7017045454546  Z M 5.94196428571429 0.33806818181813  C 6.17113095238097 0.563446969696884  6.28571428571429 0.837121212121247  6.28571428571429 1.15909090909088  L 6.28571428571429 3.47727272727275  C 6.28571428571429 3.79924242424249  6.17113095238097 4.07291666666663  5.94196428571429 4.29829545454538  C 5.71279761904761 4.52367424242414  5.43452380952381 4.63636363636363  5.10714285714288 4.63636363636363  L 1.17857142857142 4.63636363636363  C 0.851190476190485 4.63636363636363  0.572916666666679 4.52367424242414  0.34375 4.29829545454538  C 0.114583333333321 4.07291666666663  0 3.79924242424249  0 3.47727272727275  L 0 1.15909090909088  C 0 0.837121212121247  0.114583333333321 0.563446969696884  0.34375 0.33806818181813  C 0.572916666666679 0.112689393939377  0.851190476190485 0  1.17857142857142 0  L 5.10714285714288 0  C 5.43452380952381 0  5.71279761904761 0.112689393939377  5.94196428571429 0.33806818181813  Z M 21.65625 6.51988636363637  C 21.8854166666666 6.74526515151524  22 7.01893939393938  22 7.34090909090912  L 22 9.65909090909088  C 22 9.98106060606062  21.8854166666666 10.2547348484848  21.65625 10.4801136363636  C 21.4270833333334 10.7054924242425  21.1488095238095 10.8181818181819  20.8214285714286 10.8181818181819  L 9.03571428571429 10.8181818181819  C 8.70833333333332 10.8181818181819  8.43005952380951 10.7054924242425  8.20089285714288 10.4801136363636  C 7.97172619047619 10.2547348484848  7.85714285714288 9.98106060606062  7.85714285714288 9.65909090909088  L 7.85714285714288 7.34090909090912  C 7.85714285714288 7.01893939393938  7.97172619047619 6.74526515151524  8.20089285714288 6.51988636363637  C 8.43005952380951 6.29450757575751  8.70833333333332 6.18181818181813  9.03571428571429 6.18181818181813  L 20.8214285714286 6.18181818181813  C 21.1488095238095 6.18181818181813  21.4270833333334 6.29450757575751  21.65625 6.51988636363637  Z M 21.65625 0.33806818181813  C 21.8854166666666 0.563446969696884  22 0.837121212121247  22 1.15909090909088  L 22 3.47727272727275  C 22 3.79924242424249  21.8854166666666 4.07291666666663  21.65625 4.29829545454538  C 21.4270833333334 4.52367424242414  21.1488095238095 4.63636363636363  20.8214285714286 4.63636363636363  L 9.03571428571429 4.63636363636363  C 8.70833333333332 4.63636363636363  8.43005952380951 4.52367424242414  8.20089285714288 4.29829545454538  C 7.97172619047619 4.07291666666663  7.85714285714288 3.79924242424249  7.85714285714288 3.47727272727275  L 7.85714285714288 1.15909090909088  C 7.85714285714288 0.837121212121247  7.97172619047619 0.563446969696884  8.20089285714288 0.33806818181813  C 8.43005952380951 0.112689393939377  8.70833333333332 0  9.03571428571429 0  L 20.8214285714286 0  C 21.1488095238095 0  21.4270833333334 0.112689393939377  21.65625 0.33806818181813  Z " fill-rule="nonzero" fill="#cccccc" stroke="none" transform="matrix(1 0 0 1 84 16 )" />
  </g>
</svg>