<?xml version="1.0" encoding="utf-8"?>
<svg version="1.1" xmlns:xlink="http://www.w3.org/1999/xlink" width="14px" height="15px" xmlns="http://www.w3.org/2000/svg">
  <g transform="matrix(1 0 0 1 -1268 -38 )">
    <path d="M 7 14.3303571428571  C 7.08974358974361 14.3303571428571  7.1346153846154 14.2857142857142  7.1346153846154 14.1964285714286  C 7.1346153846154 14.1071428571428  7.08974358974361 14.0625  7 14.0625  C 6.6690705128205 14.0625  6.38441506410258 13.9439174107143  6.14603365384615 13.7067522321429  C 5.90765224358974 13.4695870535714  5.78846153846153 13.1863839285715  5.78846153846153 12.8571428571429  C 5.78846153846153 12.7678571428571  5.74358974358974 12.7232142857143  5.65384615384615 12.7232142857143  C 5.56410256410258 12.7232142857143  5.51923076923075 12.7678571428571  5.51923076923075 12.8571428571429  C 5.51923076923075 13.2645089285714  5.66366185897436 13.6118861607142  5.95252403846153 13.8992745535714  C 6.24138621794875 14.1866629464286  6.59054487179486 14.3303571428571  7 14.3303571428571  Z M 13.234375 11.0491071428571  C 13.4643429487179 11.3058035714285  13.7195512820513 11.5513392857143  14 11.7857142857143  C 14 12.0758928571429  13.8934294871795 12.3270089285714  13.6802884615384 12.5390625  C 13.4671474358974 12.7511160714286  13.2147435897436 12.8571428571429  12.9230769230769 12.8571428571429  L 9.15384615384615 12.8571428571429  C 9.15384615384615 13.4486607142857  8.94350961538464 13.9536830357143  8.52283653846157 14.3722098214286  C 8.10216346153847 14.7907366071429  7.59455128205129 15  7 15  C 6.40544871794875 15  5.89783653846153 14.7907366071429  5.47716346153847 14.3722098214286  C 5.0564903846154 13.9536830357143  4.84615384615385 13.4486607142857  4.84615384615385 12.8571428571429  L 1.07692307692308 12.8571428571429  C 0.785256410256428 12.8571428571429  0.532852564102579 12.7511160714286  0.319711538461528 12.5390625  C 0.106570512820497 12.3270089285714  0 12.0758928571429  0 11.7857142857143  C 0.280448717948711 11.5513392857143  0.535657051282063 11.3058035714285  0.765625 11.0491071428571  C 0.995592948717937 10.7924107142858  1.23397435897436 10.458984375  1.48076923076925 10.048828125  C 1.72756410256411 9.638671875  1.93649839743589 9.19642857142853  2.1075721153846 8.72209821428568  C 2.27864583333333 8.24776785714283  2.41887019230768 7.67299107142853  2.52824519230768 6.99776785714288  C 2.63762019230768 6.32254464285715  2.69230769230768 5.59709821428573  2.69230769230768 4.82142857142856  C 2.69230769230768 3.97321428571429  3.02043269230768 3.18498883928576  3.67668269230768 2.45675223214288  C 4.33293269230768 1.728515625  5.19391025641026 1.28627232142853  6.2596153846154 1.13002232142856  C 6.21474358974357 1.02399553571427  6.19230769230768 0.915178571428586  6.19230769230768 0.80357142857144  C 6.19230769230768 0.580357142857147  6.27083333333333 0.390624999999974  6.4278846153846 0.234375  C 6.58493589743589 0.0781250000000258  6.77564102564101 0  7 0  C 7.22435897435899 0  7.41506410256411 0.0781250000000258  7.5721153846154 0.234375  C 7.72916666666667 0.390624999999974  7.80769230769232 0.580357142857147  7.80769230769232 0.80357142857144  C 7.80769230769232 0.915178571428586  7.78525641025643 1.02399553571427  7.7403846153846 1.13002232142856  C 8.80608974358972 1.28627232142853  9.6670673076923 1.728515625  10.3233173076923 2.45675223214288  C 10.9795673076923 3.18498883928576  11.3076923076923 3.97321428571429  11.3076923076923 4.82142857142856  C 11.3076923076923 5.59709821428573  11.3623798076923 6.32254464285715  11.4717548076923 6.99776785714288  C 11.5811298076923 7.67299107142853  11.7213541666667 8.24776785714283  11.8924278846154 8.72209821428568  C 12.0635016025641 9.19642857142853  12.2724358974359 9.638671875  12.5192307692308 10.048828125  C 12.7660256410256 10.458984375  13.0044070512821 10.7924107142858  13.234375 11.0491071428571  Z " fill-rule="nonzero" fill="#666666" stroke="none" transform="matrix(1 0 0 1 1268 38 )" />
  </g>
</svg>