<?xml version="1.0" encoding="utf-8"?>
<svg version="1.1" xmlns:xlink="http://www.w3.org/1999/xlink" width="12px" height="6px" xmlns="http://www.w3.org/2000/svg">
  <g transform="matrix(1 0 0 1 -1399 -43 )">
    <path d="M 11.77734375 0.197916666666686  C 11.92578125 0.329861111111143  12 0.486111111111086  12 0.666666666666686  C 12 0.847222222222229  11.92578125 1.00347222222223  11.77734375 1.13541666666669  L 6.52734375 5.80208333333331  C 6.37890624999997 5.93402777777777  6.20312499999997 6  6 6  C 5.79687500000003 6  5.62109375000003 5.93402777777777  5.47265625 5.80208333333331  L 0.22265625 1.13541666666669  C 0.0742187499999742 1.00347222222223  0 0.847222222222229  0 0.666666666666686  C 0 0.486111111111086  0.0742187499999742 0.329861111111143  0.22265625 0.197916666666686  C 0.371093750000026 0.0659722222222285  0.546875000000026 0  0.75 0  L 11.25 0  C 11.453125 0  11.62890625 0.0659722222222285  11.77734375 0.197916666666686  Z " fill-rule="nonzero" fill="#666666" stroke="none" transform="matrix(1 0 0 1 1399 43 )" />
  </g>
</svg>