<?xml version="1.0" encoding="utf-8"?>
<svg version="1.1" xmlns:xlink="http://www.w3.org/1999/xlink" width="81px" height="23px" xmlns="http://www.w3.org/2000/svg">
  <defs>
    <mask fill="white" id="clip2">
      <path d="M 0 18  L 0 5  C 0 2.19999999999999  2.19999999999999 0  5 0  L 27.9411764705882 0  L 76 0  C 78.8 0  81 2.19999999999999  81 5  L 81 18  C 81 20.8  78.8 23  76 23  L 19.7058823529412 23  L 5 23  C 2.19999999999999 23  0 20.8  0 18  Z " fill-rule="evenodd" />
    </mask>
  </defs>
  <g transform="matrix(1 0 0 1 -205 -126 )">
    <path d="M 0 18  L 0 5  C 0 2.19999999999999  2.19999999999999 0  5 0  L 27.9411764705882 0  L 76 0  C 78.8 0  81 2.19999999999999  81 5  L 81 18  C 81 20.8  78.8 23  76 23  L 19.7058823529412 23  L 5 23  C 2.19999999999999 23  0 20.8  0 18  Z " fill-rule="nonzero" fill="#ffffff" stroke="none" transform="matrix(1 0 0 1 205 126 )" />
    <path d="M 0 18  L 0 5  C 0 2.19999999999999  2.19999999999999 0  5 0  L 27.9411764705882 0  L 76 0  C 78.8 0  81 2.19999999999999  81 5  L 81 18  C 81 20.8  78.8 23  76 23  L 19.7058823529412 23  L 5 23  C 2.19999999999999 23  0 20.8  0 18  Z " stroke-width="2" stroke="#797979" fill="none" transform="matrix(1 0 0 1 205 126 )" mask="url(#clip2)" />
  </g>
</svg>