<?xml version="1.0" encoding="utf-8"?>
<svg version="1.1" xmlns:xlink="http://www.w3.org/1999/xlink" width="12px" height="12px" viewBox="296 167  12 12" xmlns="http://www.w3.org/2000/svg">
  <path d="M 302 167  C 305.36 167  308 169.64  308 173  C 308 176.36  305.36 179  302 179  C 298.64 179  296 176.36  296 173  C 296 169.64  298.64 167  302 167  Z " fill-rule="nonzero" fill="#ffffff" stroke="none" />
  <path d="M 302 167.5  C 305.08 167.5  307.5 169.92  307.5 173  C 307.5 176.08  305.08 178.5  302 178.5  C 298.92 178.5  296.5 176.08  296.5 173  C 296.5 169.92  298.92 167.5  302 167.5  Z " stroke-width="1" stroke="#797979" fill="none" />
  <path d="M 302 176  C 300.32 176  299 174.68  299 173  C 299 171.32  300.32 170  302 170  C 303.68 170  305 171.32  305 173  C 305 174.68  303.68 176  302 176  " fill-rule="nonzero" fill="#797979" stroke="none" />
</svg>