<?xml version="1.0" encoding="utf-8"?>
<svg version="1.1" xmlns:xlink="http://www.w3.org/1999/xlink" width="12px" height="12px" viewBox="834 415.5  12 12" xmlns="http://www.w3.org/2000/svg">
  <path d="M 840 415.5  C 843.36 415.5  846 418.14  846 421.5  C 846 424.86  843.36 427.5  840 427.5  C 836.64 427.5  834 424.86  834 421.5  C 834 418.14  836.64 415.5  840 415.5  Z " fill-rule="nonzero" fill="#ffffff" stroke="none" />
  <path d="M 840 416  C 843.08 416  845.5 418.42  845.5 421.5  C 845.5 424.58  843.08 427  840 427  C 836.92 427  834.5 424.58  834.5 421.5  C 834.5 418.42  836.92 416  840 416  Z " stroke-width="1" stroke="#797979" fill="none" />
  <path d="M 840 424.5  C 838.32 424.5  837 423.18  837 421.5  C 837 419.82  838.32 418.5  840 418.5  C 841.68 418.5  843 419.82  843 421.5  C 843 423.18  841.68 424.5  840 424.5  " fill-rule="nonzero" fill="#797979" stroke="none" />
</svg>